# WaveFront *.obj file (generated by Autodesk ATF)

mtllib 507aebcb-db55-490b-9629-0944c8c38cdf.mtl

g Body1

v 50.000000 24.000000 31.000000
v -49.000001 24.000000 31.000000
v -49.000001 24.000000 1.000000
v 50.000000 24.000000 1.000000
v -49.000001 -25.000000 1.000000
v 50.000000 -25.000000 1.000000
v -49.000001 -25.000000 31.000000
v -50.000000 -25.000000 31.000000
v 50.000000 25.000000 31.000000
v -50.000000 25.000000 31.000000
v -50.000000 25.000000 0.000000
v -50.000000 -25.000000 0.000000
v 50.000000 25.000000 0.000000
v 50.000000 -25.000000 0.000000
vt 9.900000 3.000000 0.000000
vt 0.000000 3.000000 0.000000
vt 9.900000 0.000000 0.000000
vt 0.000000 0.000000 0.000000
vt 5.000000 2.400000 0.000000
vt -4.900000 2.400000 0.000000
vt 5.000000 -2.500000 0.000000
vt -4.900000 -2.500000 0.000000
vt 4.900000 3.000000 0.000000
vt 0.000000 3.000000 0.000000
vt 4.900000 0.000000 0.000000
vt 0.000000 0.000000 0.000000
vt 0.050000 -2.500000 0.000000
vt 0.050000 2.400000 0.000000
vt -0.050000 -2.500000 0.000000
vt -0.050000 2.500000 0.000000
vt 9.950000 2.500000 0.000000
vt 9.950000 2.400000 0.000000
vt -0.000000 0.000000 0.000000
vt 5.000000 0.000000 0.000000
vt -0.000000 3.100000 0.000000
vt 5.000000 3.100000 0.000000
vt -0.000000 0.000000 0.000000
vt 10.000000 0.000000 0.000000
vt -0.000000 3.100000 0.000000
vt 10.000000 3.100000 0.000000
vt 0.000000 0.100000 0.000000
vt 0.000000 0.000000 0.000000
vt 4.900000 0.100000 0.000000
vt 5.000000 0.000000 0.000000
vt 5.000000 3.100000 0.000000
vt 4.900000 3.100000 0.000000
vt 0.000000 3.100000 0.000000
vt 0.000000 0.000000 0.000000
vt 0.100000 0.100000 0.000000
vt 10.000000 0.000000 0.000000
vt 10.000000 0.100000 0.000000
vt 0.100000 3.100000 0.000000
vt -5.000000 -2.500000 0.000000
vt 5.000000 -2.500000 0.000000
vt -5.000000 2.500000 0.000000
vt 5.000000 2.500000 0.000000
vn 0.000000 -0.100000 0.000000
vn 0.000000 -0.100000 0.000000
vn 0.000000 -0.100000 0.000000
vn 0.000000 -0.100000 0.000000
vn 0.000000 0.000000 0.100000
vn 0.000000 0.000000 0.100000
vn 0.000000 0.000000 0.100000
vn 0.000000 0.000000 0.100000
vn 0.100000 0.000000 0.000000
vn 0.100000 0.000000 0.000000
vn 0.100000 0.000000 0.000000
vn 0.100000 0.000000 0.000000
vn 0.000000 0.000000 0.100000
vn 0.000000 0.000000 0.100000
vn 0.000000 0.000000 0.100000
vn 0.000000 0.000000 0.100000
vn 0.000000 0.000000 0.100000
vn 0.000000 0.000000 0.100000
vn -0.100000 0.000000 0.000000
vn -0.100000 0.000000 0.000000
vn -0.100000 0.000000 0.000000
vn -0.100000 0.000000 0.000000
vn 0.000000 0.100000 0.000000
vn 0.000000 0.100000 0.000000
vn 0.000000 0.100000 0.000000
vn 0.000000 0.100000 0.000000
vn 0.100000 0.000000 0.000000
vn 0.100000 0.000000 0.000000
vn 0.100000 0.000000 0.000000
vn 0.100000 0.000000 0.000000
vn 0.100000 0.000000 0.000000
vn 0.100000 0.000000 0.000000
vn 0.000000 -0.100000 0.000000
vn 0.000000 -0.100000 0.000000
vn 0.000000 -0.100000 0.000000
vn 0.000000 -0.100000 0.000000
vn 0.000000 -0.100000 0.000000
vn 0.000000 -0.100000 0.000000
vn -0.000000 0.000000 -0.100000
vn -0.000000 0.000000 -0.100000
vn -0.000000 0.000000 -0.100000
vn -0.000000 0.000000 -0.100000
usemtl Aluminum_-_Satin
f 1/1/1 2/2/2 4/3/3
f 4/3/3 2/2/2 3/4/4
f 4/5/5 3/6/6 6/7/7
f 6/7/7 3/6/6 5/8/8
f 2/9/9 7/10/10 3/11/11
f 3/11/11 7/10/10 5/12/12
f 7/13/13 2/14/14 8/15/15
f 8/15/15 2/14/14 10/16/16
f 10/16/16 2/14/14 9/17/17
f 9/17/17 2/14/14 1/18/18
f 11/19/19 12/20/20 10/21/21
f 10/21/21 12/20/20 8/22/22
f 13/23/23 11/24/24 9/25/25
f 9/25/25 11/24/24 10/26/26
f 6/27/27 14/28/28 4/29/29
f 4/29/29 14/28/28 13/30/30
f 4/29/29 13/30/30 9/31/31
f 9/31/31 1/32/32 4/29/29
f 8/33/33 12/34/34 5/35/35
f 5/35/35 12/34/34 14/36/36
f 5/35/35 14/36/36 6/37/37
f 5/35/35 7/38/38 8/33/33
f 14/39/39 12/40/40 13/41/41
f 13/41/41 12/40/40 11/42/42

# 14 vertices
# 42 texture params
# 42 normals
# 24 facets

# 1 groups
